<svg width="16" height="16" viewBox="0 0 16 16" fill="none" xmlns="http://www.w3.org/2000/svg">
<path d="M8.00044 1.33334C4.32044 1.33334 1.33377 4.32001 1.33377 8.00001C1.33377 11.68 4.32044 14.6667 8.00044 14.6667C11.6804 14.6667 14.6671 11.68 14.6671 8.00001C14.6671 4.32001 11.6804 1.33334 8.00044 1.33334ZM8.00044 3.33334C9.1071 3.33334 10.0004 4.22668 10.0004 5.33334C10.0004 6.44001 9.1071 7.33334 8.00044 7.33334C6.89377 7.33334 6.00044 6.44001 6.00044 5.33334C6.00044 4.22668 6.89377 3.33334 8.00044 3.33334ZM8.00044 12.8C6.33377 12.8 4.86044 11.9467 4.00044 10.6533C4.02044 9.32668 6.6671 8.60001 8.00044 8.60001C9.3271 8.60001 11.9804 9.32668 12.0004 10.6533C11.1404 11.9467 9.6671 12.8 8.00044 12.8Z" fill="#00AEEF"/>
</svg>
