<svg width="16" height="12" viewBox="0 0 16 12" fill="none" xmlns="http://www.w3.org/2000/svg">
<path d="M0 0H16V4H0V0Z" fill="#FF9933"/>
<path d="M0 4H16V8H0V4Z" fill="white"/>
<path d="M0 8H16V12H0V8Z" fill="#128807"/>
<path d="M8.00013 7.59996C8.88379 7.59996 9.60013 6.88362 9.60013 5.99996C9.60013 5.11631 8.88379 4.39996 8.00013 4.39996C7.11648 4.39996 6.40013 5.11631 6.40013 5.99996C6.40013 6.88362 7.11648 7.59996 8.00013 7.59996Z" fill="#000088"/>
<path d="M8.0002 7.40004C8.77339 7.40004 9.4002 6.77324 9.4002 6.00004C9.4002 5.22684 8.77339 4.60004 8.0002 4.60004C7.227 4.60004 6.6002 5.22684 6.6002 6.00004C6.6002 6.77324 7.227 7.40004 8.0002 7.40004Z" fill="white"/>
<path d="M8.00024 6.27991C8.15488 6.27991 8.28024 6.15455 8.28024 5.99991C8.28024 5.84527 8.15488 5.71991 8.00024 5.71991C7.8456 5.71991 7.72024 5.84527 7.72024 5.99991C7.72024 6.15455 7.8456 6.27991 8.00024 6.27991Z" fill="#000088"/>
</svg>
