<svg width="76" height="30" viewBox="0 0 76 30" fill="none" xmlns="http://www.w3.org/2000/svg">
<path d="M4.72042 23.8631C7.15307 25.9818 10.3361 27.2732 13.8242 27.2732C16.5039 27.2732 19.0098 26.5072 21.1298 25.1913C12.752 22.4476 6.71992 23.3943 4.72042 23.8631ZM27.2732 10.3268C26.9727 9.05532 26.4923 7.85274 25.8655 6.74515C17.8171 12.4394 11.1399 17.9758 6.78246 21.7858C14.8766 15.9935 22.2767 12.3919 27.2732 10.3268ZM25.6001 20.7211C26.3367 19.5246 26.8965 18.2072 27.2457 16.8085C18.2045 17.4871 10.9965 20.4009 6.57656 22.6988C12.4012 20.3335 20.9452 20.4622 25.6001 20.7211ZM5.82312 21.1469C11.6325 15.1172 17.175 7.84508 21.3433 1.95936C20.1949 1.21636 18.929 0.638821 17.5792 0.258898C15.447 5.39397 11.7164 12.9955 5.68738 21.2618L5.82312 21.1469ZM11.1582 0C9.7901 0.266558 8.49675 0.730737 7.30712 1.36649C7.58622 6.18599 7.64266 15.5584 4.91717 21.4794C7.26594 17.1394 10.4886 9.5915 11.1582 0ZM0 13.5071C0 17.2405 1.4962 20.623 3.9197 23.1048C4.32387 21.6019 5.72398 15.033 2.45096 5.68657C0.905954 7.90636 0 10.6011 0 13.5071Z" fill="white"/>
<path d="M38.2679 11.4777C37.8715 11.54 36.7294 11.6176 35.2962 11.6176C33.6662 11.6176 32.0515 11.2922 32.0515 8.73753V0.310208C32.0515 0.139898 32.1887 0 32.3565 0H33.1341C33.3018 0 33.439 0.139898 33.439 0.310208V8.73601C33.439 9.91297 33.6982 10.3464 35.3129 10.3464H38.2542C38.3609 10.3464 38.4219 10.4239 38.4219 10.5319V11.2602C38.4204 11.3545 38.3594 11.4625 38.2679 11.4777Z" fill="white"/>
<path d="M43.0025 11.6182H42.8653C41.83 11.6182 39.7274 11.0297 39.7274 7.9778V3.30035C39.7274 3.13004 39.8341 2.99014 40.0018 2.99014H40.7947C40.9624 2.99014 41.0692 3.13004 41.0692 3.30035V7.9778C41.0692 9.83601 41.8468 10.4245 42.8668 10.4245H43.0041C44.0241 10.4245 44.8017 9.83601 44.8017 7.9778V3.30035C44.8017 3.13004 44.9085 2.99014 45.0762 2.99014H45.8691C46.0368 2.99014 46.1435 3.13004 46.1435 3.30035V7.9778C46.142 11.0297 44.0394 11.6182 43.0025 11.6182Z" fill="white"/>
<path d="M54.584 11.4777C54.1876 11.54 53.0455 11.6176 51.6123 11.6176C49.9823 11.6176 48.3676 11.2922 48.3676 8.73753V0.310208C48.3676 0.139898 48.5048 0 48.6726 0H49.4502C49.6179 0 49.7551 0.139898 49.7551 0.310208V8.73601C49.7551 9.91297 50.0143 10.3464 51.629 10.3464H54.5703C54.677 10.3464 54.738 10.4239 54.738 10.5319V11.2602C54.7365 11.3545 54.6755 11.4625 54.584 11.4777Z" fill="white"/>
<path d="M59.3211 11.6182H59.1839C58.147 11.6182 56.0459 11.0297 56.0459 7.9778V3.30035C56.0459 3.13004 56.1527 2.99014 56.3204 2.99014H57.1132C57.281 2.99014 57.3877 3.13004 57.3877 3.30035V7.9778C57.3877 9.83601 58.1653 10.4245 59.1854 10.4245H59.3226C60.3442 10.4245 61.1203 9.83601 61.1203 7.9778V3.30035C61.1203 3.13004 61.227 2.99014 61.3947 2.99014H62.1876C62.3553 2.99014 62.4621 3.13004 62.4621 3.30035V7.9778C62.4605 11.0297 60.3579 11.6182 59.3211 11.6182Z" fill="white"/>
<path d="M41.0244 27.043H40.1857C40.0638 27.043 39.9265 26.9502 39.9265 26.7799V17.0524C39.9265 16.8973 39.8808 16.8821 39.8198 16.8821C39.7588 16.8821 39.7131 16.9125 39.6673 17.0524L37.7782 21.9777C37.6257 22.3807 37.458 22.5966 37.0615 22.5966H36.2687C35.8722 22.5966 35.7045 22.3792 35.552 21.9777L33.6629 17.0524C33.6171 16.9125 33.5714 16.8821 33.5104 16.8821C33.4494 16.8821 33.4037 16.8973 33.4037 17.0524V26.7799C33.4037 26.9502 33.2664 27.043 33.1444 27.043H32.3058C32.1381 27.043 32.0466 26.9198 32.0466 26.7328V16.6343C32.0466 15.5972 32.4888 15.5349 33.0835 15.5349H33.6476C34.3185 15.5349 34.471 15.7356 34.7897 16.5719L36.5568 21.2813C36.6026 21.4212 36.6178 21.4212 36.6636 21.4212C36.7093 21.4212 36.7246 21.4212 36.7703 21.2813L38.5405 16.5719C38.8607 15.7356 39.0437 15.5349 39.6826 15.5349H40.2467C40.8414 15.5349 41.282 15.5972 41.282 16.6343V26.7328C41.2836 26.9183 41.1921 27.043 41.0244 27.043Z" fill="white"/>
<path d="M46.6164 27.0428C44.3765 27.0428 43.2345 25.5404 43.2345 23.264V22.0871C43.2345 19.8107 44.3765 18.3083 46.6164 18.3083C48.8562 18.3083 50.0135 19.8107 50.0135 22.0871V23.264C50.0135 25.5404 48.8562 27.0428 46.6164 27.0428ZM48.6733 22.0856C48.6733 20.5056 48.0481 19.499 46.6164 19.499C45.1999 19.499 44.5748 20.4904 44.5748 22.0856V23.2625C44.5748 24.8425 45.1846 25.8491 46.6164 25.8491C48.0329 25.8491 48.6733 24.8577 48.6733 23.2625V22.0856Z" fill="white"/>
<path d="M57.9505 27.0429H57.1576C56.9899 27.0429 56.8832 26.903 56.8832 26.7327V21.2037C56.8832 20.0419 56.5935 19.5933 55.5582 19.5933H54.4756C53.4403 19.5933 53.1506 20.0419 53.1506 21.2037V26.7327C53.1506 26.903 53.0439 27.0429 52.8761 27.0429H52.0833C51.9155 27.0429 51.8088 26.903 51.8088 26.7327V21.2037C51.8088 18.8178 53.4388 18.4164 54.4756 18.4164H55.5582C56.5935 18.4164 58.225 18.8193 58.225 21.2037V26.7327C58.225 26.903 58.1182 27.0429 57.9505 27.0429Z" fill="white"/>
<path d="M66.4987 23.1095H61.3938V23.2951C61.3938 25.0757 62.2172 25.8969 63.6184 25.8969C64.5028 25.8969 65.5228 25.7889 66.2242 25.6794C66.2547 25.6794 66.2699 25.6794 66.3004 25.6794C66.4224 25.6794 66.5444 25.7417 66.5444 25.8969V26.423C66.5444 26.6237 66.4834 26.7332 66.2394 26.7788C65.3703 26.9491 64.64 27.0419 63.6184 27.0419C61.8665 27.0419 60.0535 26.1903 60.0535 23.216V22.1318C60.0535 19.9329 61.2566 18.3059 63.4354 18.3059C65.66 18.3059 66.7868 19.9162 66.7868 22.1166V22.7674C66.7884 22.9696 66.6816 23.1095 66.4987 23.1095ZM65.4313 21.9934C65.4313 20.3359 64.7757 19.4996 63.4354 19.4996C62.1257 19.4996 61.3938 20.3983 61.3938 21.9934V22.071H65.4313V21.9934Z" fill="white"/>
<path d="M71.892 30.0002C70.7637 30.0002 69.7284 29.8299 69.3777 29.7371C69.1642 29.6748 69.088 29.5972 69.088 29.4117V28.9783C69.088 28.8232 69.21 28.7152 69.3624 28.7152C69.3777 28.7152 69.3929 28.7152 69.4082 28.7152C69.8656 28.7776 71.0077 28.9008 71.892 28.9008C73.2628 28.9008 73.6897 28.5601 73.6897 26.9331V26.8555C73.3237 26.9635 72.4867 27.041 71.9987 27.041C70.2468 27.041 68.5863 26.4221 68.5863 23.8356V18.7247C68.5863 18.5544 68.7236 18.4145 68.8913 18.4145H69.6232C69.7909 18.4145 69.9281 18.5544 69.9281 18.7247V23.8356C69.9281 25.493 70.721 25.8793 72.0003 25.8793C72.4424 25.8793 73.2185 25.7865 73.6607 25.6786V18.7247C73.6607 18.5544 73.7979 18.4145 73.9657 18.4145H74.6975C74.8653 18.4145 75.0025 18.5544 75.0025 18.7247V26.9331C74.9994 29.3661 73.9641 30.0002 71.892 30.0002Z" fill="white"/>
</svg>
