<svg width="16" height="16" viewBox="0 0 16 16" fill="none" xmlns="http://www.w3.org/2000/svg">
<path d="M3.33333 6.66667V12C3.33333 12.7333 3.93333 13.3333 4.66666 13.3333H14C14.7333 13.3333 15.3333 12.7333 15.3333 12V6.66667C15.3333 5.93334 14.7333 5.33334 14 5.33334H4.66666C3.93333 5.33334 3.33333 5.93334 3.33333 6.66667ZM9.33333 7.33334C10.44 7.33334 11.3333 8.22667 11.3333 9.33334C11.3333 10.44 10.44 11.3333 9.33333 11.3333C8.22666 11.3333 7.33333 10.44 7.33333 9.33334C7.33333 8.22667 8.22666 7.33334 9.33333 7.33334ZM0.666662 11.3333V4C0.666662 3.26667 1.26666 2.66667 2 2.66667H13.3333V4H2V11.3333H0.666662Z" fill="#003A63"/>
<path d="M2 2.66667C1.26666 2.66667 0.666662 3.26667 0.666662 4V11.3333H2V4H13.3333V2.66667H2Z" fill="#00AEEF"/>
</svg>
