<svg width="16" height="16" viewBox="0 0 16 16" fill="none" xmlns="http://www.w3.org/2000/svg">
<path d="M7.99999 4C8.73332 4 9.33332 4.6 9.33332 5.33333C9.33332 6.06667 8.73332 6.66667 7.99999 6.66667C7.26666 6.66667 6.66666 6.06667 6.66666 5.33333C6.66666 4.6 7.26666 4 7.99999 4ZM7.99999 10.6667C9.79999 10.6667 11.8667 11.5267 12 12H3.99999C4.15332 11.52 6.20666 10.6667 7.99999 10.6667ZM7.99999 2.66667C6.52666 2.66667 5.33332 3.86 5.33332 5.33333C5.33332 6.80667 6.52666 8 7.99999 8C9.47332 8 10.6667 6.80667 10.6667 5.33333C10.6667 3.86 9.47332 2.66667 7.99999 2.66667ZM7.99999 9.33333C6.21999 9.33333 2.66666 10.2267 2.66666 12V13.3333H13.3333V12C13.3333 10.2267 9.77999 9.33333 7.99999 9.33333Z" fill="#003A63"/>
<path fill-rule="evenodd" clip-rule="evenodd" d="M8.00001 2.66667C6.52668 2.66667 5.33334 3.86 5.33334 5.33333C5.33334 6.80667 6.52668 8 8.00001 8C9.47334 8 10.6667 6.80667 10.6667 5.33333C10.6667 3.86 9.47334 2.66667 8.00001 2.66667ZM8.00001 4C7.26334 4 6.66668 4.59667 6.66668 5.33333C6.66668 6.07 7.26334 6.66667 8.00001 6.66667C8.73668 6.66667 9.33334 6.07 9.33334 5.33333C9.33334 4.59667 8.73668 4 8.00001 4Z" fill="#00AEEF"/>
</svg>
