<svg width="16" height="16" viewBox="0 0 16 16" fill="none" xmlns="http://www.w3.org/2000/svg">
<path d="M11.3333 2.66667L14 5.33334L11.3333 8V6H8.66667V4.66667H11.3333V2.66667ZM6.66667 4.66667C6.3 4.66667 6 4.96667 6 5.33334C6 5.7 6.3 6 6.66667 6C7.03333 6 7.33333 5.7 7.33333 5.33334C7.33333 4.96667 7.03333 4.66667 6.66667 4.66667ZM4 4.66667C3.63333 4.66667 3.33333 4.96667 3.33333 5.33334C3.33333 5.7 3.63333 6 4 6C4.36667 6 4.66667 5.7 4.66667 5.33334C4.66667 4.96667 4.36667 4.66667 4 4.66667ZM4.66667 11.3333H7.33333V10H4.66667V8L2 10.6667L4.66667 13.3333V11.3333ZM9.33333 11.3333C9.7 11.3333 10 11.0333 10 10.6667C10 10.3 9.7 10 9.33333 10C8.96667 10 8.66667 10.3 8.66667 10.6667C8.66667 11.0333 8.96667 11.3333 9.33333 11.3333ZM12 11.3333C12.3667 11.3333 12.6667 11.0333 12.6667 10.6667C12.6667 10.3 12.3667 10 12 10C11.6333 10 11.3333 10.3 11.3333 10.6667C11.3333 11.0333 11.6333 11.3333 12 11.3333Z" fill="#003A63"/>
<path d="M9.99999 10.6667C9.99999 11.0333 9.69999 11.3333 9.33332 11.3333C8.96666 11.3333 8.66666 11.0333 8.66666 10.6667C8.66666 10.3 8.96666 10 9.33332 10C9.69999 10 9.99999 10.3 9.99999 10.6667Z" fill="#00AEEF"/>
<path d="M12.6667 10.6667C12.6667 11.0333 12.3667 11.3333 12 11.3333C11.6333 11.3333 11.3333 11.0333 11.3333 10.6667C11.3333 10.3 11.6333 10 12 10C12.3667 10 12.6667 10.3 12.6667 10.6667Z" fill="#00AEEF"/>
<path d="M4.66668 5.33334C4.66668 5.70001 4.36668 6.00001 4.00001 6.00001C3.63334 6.00001 3.33334 5.70001 3.33334 5.33334C3.33334 4.96667 3.63334 4.66667 4.00001 4.66667C4.36668 4.66667 4.66668 4.96667 4.66668 5.33334Z" fill="#00AEEF"/>
<path d="M7.33334 5.33334C7.33334 5.70001 7.03334 6.00001 6.66668 6.00001C6.30001 6.00001 6.00001 5.70001 6.00001 5.33334C6.00001 4.96667 6.30001 4.66667 6.66668 4.66667C7.03334 4.66667 7.33334 4.96667 7.33334 5.33334Z" fill="#00AEEF"/>
</svg>
