<svg width="16" height="16" viewBox="0 0 16 16" fill="none" xmlns="http://www.w3.org/2000/svg">
<path d="M12.9312 3.03305C11.6148 1.72279 9.86352 1.00075 7.99968 1C6.14001 1 4.38598 1.72141 3.06088 3.03134C1.73343 4.34352 1.00171 6.08733 1 7.93517V7.9373V7.93858C1.00021 9.05701 1.29434 10.1853 1.85264 11.2151L1.01914 15L4.85127 14.1292C5.82184 14.6178 6.90477 14.8755 7.99701 14.8759H7.99979C9.85913 14.8759 11.6132 14.1544 12.9385 12.8443C14.2671 11.5311 14.9991 9.78952 15 7.94051C15.0005 6.10452 14.2659 4.36168 12.9312 3.03305ZM7.99968 13.7832H7.99722C7.0165 13.7828 6.04475 13.5368 5.18719 13.0716L5.00597 12.9734L2.45778 13.5524L3.01127 11.0393L2.90457 10.8555C2.37406 9.94151 2.09373 8.93257 2.09373 7.93741C2.09576 4.71629 4.74489 2.09268 7.99947 2.09268C9.57175 2.09332 11.0491 2.70226 12.1593 3.80711C13.2863 4.92906 13.9067 6.39687 13.9062 7.94019C13.9049 11.162 11.2552 13.7832 7.99968 13.7832Z" fill="white"/>
<path d="M6.19322 5H5.91032C5.81184 5 5.65196 5.03988 5.51672 5.19909C5.38138 5.35841 5 5.74348 5 6.52662C5 7.30976 5.52904 8.06646 5.60277 8.17278C5.6766 8.27899 6.62398 9.93741 8.12446 10.5754C9.3715 11.1056 9.62532 11.0002 9.89591 10.9736C10.1666 10.9472 10.7694 10.5886 10.8924 10.217C11.0154 9.84539 11.0154 9.52675 10.9785 9.46021C10.9416 9.39388 10.8431 9.35411 10.6955 9.27456C10.5479 9.1949 9.82434 8.80333 9.689 8.75011C9.55366 8.69712 9.45529 8.67056 9.35681 8.82999C9.25834 8.98909 8.96844 9.3572 8.88228 9.46341C8.79623 9.56973 8.71008 9.58306 8.56242 9.5034C8.41475 9.42353 7.94417 9.25248 7.38023 8.71034C6.94129 8.28837 6.6367 7.75028 6.55055 7.59097C6.46449 7.43176 6.54138 7.34559 6.61541 7.26615C6.68175 7.19492 6.77135 7.09745 6.84518 7.00457C6.91891 6.91158 6.93991 6.84525 6.9892 6.73904C7.03838 6.63283 7.01374 6.53984 6.97687 6.46029C6.93991 6.38063 6.65661 5.59354 6.52531 5.27875H6.52541C6.41481 5.01365 6.2984 5.00469 6.19322 5Z" fill="white"/>
</svg>
